<svg width="40" height="39" viewBox="0 0 40 39" fill="none" xmlns="http://www.w3.org/2000/svg">
<path fill-rule="evenodd" clip-rule="evenodd" d="M11.7553 0.116035C13.8883 0.0228248 14.5701 8.7507e-06 19.999 0C25.4296 8.75066e-06 26.109 0.0228248 28.2419 0.116035C30.3712 0.209663 31.8254 0.533361 33.1004 1.00831C34.4171 1.49845 35.5296 2.15465 36.6421 3.22298C37.7547 4.2905 38.438 5.36202 38.9505 6.6252C39.4422 7.84637 39.7797 9.242 39.8797 11.2866C39.9755 13.3352 40.0005 13.9898 40.0005 19.2058C40.0005 24.4218 39.9755 25.0748 39.8797 27.1234C39.7797 29.1672 39.4422 30.5632 38.9505 31.7848C38.438 33.0476 37.7547 34.1191 36.6421 35.1866C35.5309 36.255 34.4167 36.9128 33.1016 37.4033C31.8291 37.8783 30.3741 38.202 28.2448 38.2956C26.1115 38.3888 25.4319 38.4116 19.9996 38.4116C14.5683 38.4116 13.887 38.3888 11.7536 38.2956C9.62482 38.202 8.17103 37.8783 6.8985 37.4033C5.58389 36.9128 4.46802 36.255 3.35675 35.1866C2.24464 34.1191 1.56129 33.0476 1.05003 31.7844C0.555847 30.5632 0.218755 29.1676 0.120836 27.123C0.0241672 25.0744 0 24.4218 0 19.2058C0 13.9898 0.0250006 13.3348 0.12042 11.2862C0.216255 9.2424 0.553763 7.84637 1.04961 6.6248C1.56212 5.36202 2.24547 4.2905 3.358 3.22298C4.46969 2.15505 5.58555 1.49885 6.901 1.00831C8.1727 0.533361 9.62607 0.209663 11.7553 0.116035ZM19.3341 3.46018H19.3338H19.3336C18.9293 3.46001 18.5547 3.45984 18.2065 3.46037V3.45557C14.4789 3.45957 13.7639 3.48358 11.9188 3.5636C9.96877 3.64963 8.90999 3.96172 8.20498 4.2258C7.27162 4.57471 6.60493 4.99084 5.90492 5.66305C5.2049 6.33526 4.77072 6.97546 4.40821 7.87173C4.13446 8.54874 3.80861 9.56506 3.71944 11.4376C3.62361 13.4623 3.60444 14.0673 3.60444 19.196C3.60444 24.3248 3.62361 24.933 3.71944 26.9576C3.8082 28.8302 4.13446 29.8465 4.40821 30.5228C4.77155 31.4194 5.2049 32.058 5.90492 32.7302C6.60493 33.4024 7.27162 33.8186 8.20498 34.1667C8.91041 34.4296 9.96877 34.7425 11.9188 34.8289C14.0272 34.9209 14.6601 34.9409 20.0007 34.9409C25.3408 34.9409 25.9742 34.9209 28.0826 34.8289C30.0326 34.7433 31.0918 34.4312 31.796 34.1671C32.7298 33.819 33.3944 33.4028 34.0944 32.7306C34.7944 32.0588 35.2286 31.4206 35.5911 30.5243C35.8648 29.8481 36.1907 28.8318 36.2799 26.9592C36.3757 24.9346 36.3965 24.3264 36.3965 19.2008C36.3965 14.0753 36.3757 13.4671 36.2799 11.4424C36.1911 9.56986 35.8648 8.55354 35.5911 7.87734C35.2277 6.98106 34.7944 6.34086 34.0944 5.66865C33.3948 4.99644 32.7293 4.58031 31.796 4.23221C31.091 3.96933 30.0326 3.65643 28.0826 3.5708C25.9738 3.47877 25.3408 3.46037 20.0007 3.46037L19.3341 3.46018ZM30.6772 6.64924C29.3521 6.64924 28.2771 7.68035 28.2771 8.95312C28.2771 10.2255 29.3521 11.2578 30.6772 11.2578C32.0022 11.2578 33.0772 10.2255 33.0772 8.95312C33.0772 7.68075 32.0022 6.64844 30.6772 6.64844V6.64924ZM20.0013 9.34229C14.3291 9.34229 9.73024 13.7583 9.73024 19.2051C9.73024 24.6519 14.3291 29.0659 20.0013 29.0659C25.6736 29.0659 30.2708 24.6519 30.2708 19.2051C30.2708 13.7585 25.6734 9.3425 20.0013 9.34229ZM20.0009 12.8037C23.6827 12.8037 26.6678 15.6696 26.6678 19.2053C26.6678 22.7406 23.6827 25.6069 20.0009 25.6069C16.3188 25.6069 13.3341 22.7406 13.3341 19.2053C13.3341 15.6696 16.3188 12.8037 20.0009 12.8037Z" fill="#6D6C6C"/>
</svg>
