<svg width="46" height="35" viewBox="0 0 46 35" fill="none" xmlns="http://www.w3.org/2000/svg">
<path fill-rule="evenodd" clip-rule="evenodd" d="M5.39693 3.84069C4.48838 3.84069 3.7551 4.59318 3.7551 5.51635V5.9873H3.78573L3.7857 6.01168C4.25371 6.27879 4.8711 6.62931 5.59894 7.03823C7.30237 7.99526 9.60596 9.26946 12.013 10.5421C14.4253 11.8174 16.9178 13.0785 19.0055 14.0163C20.0512 14.4861 20.9678 14.8622 21.7065 15.1173C22.0756 15.2448 22.3793 15.3347 22.6186 15.3913C22.7371 15.4192 22.8299 15.4367 22.8995 15.4467C22.9649 15.4562 22.996 15.4571 22.999 15.4572C22.9993 15.4572 22.9992 15.4572 22.999 15.4572C23.1278 15.4572 23.5502 15.3891 24.3552 15.1199C25.1033 14.8697 26.0249 14.5012 27.072 14.0409C29.163 13.1218 31.6455 11.8857 34.0433 10.6352C36.4358 9.38743 38.7198 8.13805 40.4074 7.19962C41.1449 6.78949 41.7675 6.43929 42.2343 6.17526L42.2449 5.50372C42.2382 4.58694 41.5081 3.84069 40.6013 3.84069H5.39693ZM0.027675 8.25306L0 8.23701V5.51635C0 2.46953 2.41694 0 5.39693 0H40.6013C43.3106 0 45.5545 2.03922 45.9411 4.69866L45.9677 4.68393L45.968 4.91191C45.9891 5.11041 46 5.31208 46 5.51635V5.54707L45.9712 7.37414L46 29.4837C46 32.5311 43.5824 35 40.6013 35H5.39693C2.41931 35 0 32.5311 0 29.4837L0.027675 8.25306ZM3.7791 11.0752L3.7551 29.4837C3.7551 29.484 3.7551 29.4833 3.7551 29.4837C3.75565 30.4057 4.48987 31.1593 5.39693 31.1593H40.6013C41.5116 31.1593 42.2439 30.4072 42.2449 29.4855C42.2449 29.4849 42.2449 29.4861 42.2449 29.4855L42.2209 11.099C42.2133 11.103 42.2057 11.1071 42.1981 11.1112C40.5051 12.0175 38.205 13.2277 35.7832 14.4395C33.3666 15.6487 30.8045 16.8717 28.594 17.7966C27.4901 18.2585 26.4474 18.6572 25.539 18.9435C24.6799 19.2143 23.7691 19.4417 22.9991 19.4417C22.2554 19.4417 21.3625 19.2054 20.5401 18.939C19.6582 18.6533 18.6327 18.2556 17.5393 17.7948C15.349 16.8717 12.7802 15.6505 10.3448 14.4423C7.9045 13.2316 5.5752 12.0224 3.85761 11.1166C3.8313 11.1028 3.80513 11.089 3.7791 11.0752Z" fill="#6D6C6C"/>
</svg>
