<svg width="336" height="140" viewBox="0 0 336 140" fill="none" xmlns="http://www.w3.org/2000/svg">
<path d="M305.2 39.4564C305.2 44.2632 303 56.2804 279 64.2918L260 70.5007V12.0172C279.6 15.6223 305.2 22.8326 305.2 39.4564ZM259.8 87.1245L283.4 81.1159C291.2 96.9385 303.6 122.575 304 137.396H336C322.6 118.369 305.4 89.7282 299.2 77.9113C323.8 70.3004 329.4 55.8798 329.4 41.2589C329.4 14.8212 307.2 2.20315 281.4 2.20315H234C234.2 4.20601 234.8 7.01001 234.8 42.8612V110.758C234.8 132.389 234 135.594 234 137.396H260.6C260.2 135.594 259.8 133.19 259.8 106.753V87.1245ZM145.4 128.584V87.3247C163.2 83.5193 184.6 79.7139 191.8 80.3147V52.6753C182.2 58.6838 164.4 64.2918 145.4 70.5007V12.0172C169.2 17.6252 198.8 24.8355 208.2 30.6438V1.80258C206.6 2.20315 204.4 2.20315 201.4 2.20315H119.8C120.2 4.20601 120.2 6.20887 120.2 14.6209V135.994C120.2 133.791 120.2 135.794 119.8 137.597H204.6C207.8 137.597 209.6 137.797 211.6 137.997V110.358C199.2 117.768 168.6 124.177 145.4 128.584ZM95.4 31.6452C94.6 30.8441 89.8 24.2346 88 21.2303C85.8 17.8255 76.4 0 51.6 0C29.2 0 5.6 15.0215 5.6 39.2561C5.6 69.299 42 71.1016 57.4 76.7096C71.6 81.7167 76.2 92.1316 76.2 103.949C76.2 115.365 71.8 125.179 65.4 128.584C49.4 128.584 36.4 118.97 26.4 96.9385L0 107.153C2.6 110.157 3.8 111.96 7.4 117.368C20 136.595 38 140 53.4 140C84.8 140 102.6 126.18 102.6 103.348C102.6 78.3119 81.4 73.3047 56 66.0944C37.4 60.887 32 47.6681 32 35.2504C32 26.4378 34.6 17.0243 38.2 11.8169C51.2 11.8169 60.2 22.0315 69 42.2604L95.4 31.6452Z" fill="white"/>
</svg>
